<svg width="220" height="220" viewBox="0 0 220 220" fill="none" xmlns="http://www.w3.org/2000/svg">
<path d="M36.8194 183.058H183.181V36.6972H36.8194V183.058Z" fill="white"/>
<path d="M93.3549 122.785L68.9214 161.326L79.1227 168.058L95.8989 140.849C96.6747 139.589 122.946 148.612 122.946 148.612L156.153 69.7718L144.889 65.0277L116.196 130.814C115.54 132.371 93.3549 122.785 93.3549 122.785Z" fill="#2391CF"/>
<path d="M144.889 65.0277L116.463 132.518L93.3549 122.785L68.9214 161.326L79.1227 168.058L97.4713 138.298L111.682 143.867L122.946 148.612L156.153 69.7718L144.889 65.0277Z" stroke="black" stroke-width="6.11111" stroke-miterlimit="10" stroke-linecap="round" stroke-linejoin="round"/>
<path d="M183.176 36.7137H36.824V183.065H183.176V36.7137Z" stroke="black" stroke-width="6.11111" stroke-miterlimit="10" stroke-linecap="round" stroke-linejoin="round"/>
<path d="M152.987 110.26H182.738" stroke="black" stroke-width="6.11111" stroke-miterlimit="10" stroke-linecap="round" stroke-linejoin="round"/>
<path d="M38.9247 110.26H113.603" stroke="black" stroke-width="6.11111" stroke-miterlimit="10" stroke-linecap="round" stroke-linejoin="round"/>
<path d="M137.574 146.645H182.364" stroke="black" stroke-width="6.11111" stroke-miterlimit="10" stroke-linecap="round" stroke-linejoin="round"/>
<path d="M38.9247 146.645H63.6124" stroke="black" stroke-width="6.11111" stroke-miterlimit="10" stroke-linecap="round" stroke-linejoin="round"/>
<path d="M147.074 123.58L147.433 181.41" stroke="black" stroke-width="6.11111" stroke-miterlimit="10" stroke-linecap="round" stroke-linejoin="round"/>
<path d="M146.768 36.8463L146.779 52.4993" stroke="black" stroke-width="6.11111" stroke-miterlimit="10" stroke-linecap="round" stroke-linejoin="round"/>
<path d="M110.561 157.82V182.029" stroke="black" stroke-width="6.11111" stroke-miterlimit="10" stroke-linecap="round" stroke-linejoin="round"/>
<path d="M110.561 37.6741V115.594" stroke="black" stroke-width="6.11111" stroke-miterlimit="10" stroke-linecap="round" stroke-linejoin="round"/>
<path d="M74.0218 179.097V182.029" stroke="black" stroke-width="6.11111" stroke-miterlimit="10" stroke-linecap="round" stroke-linejoin="round"/>
<path d="M74.0218 36.5536V131.693" stroke="black" stroke-width="6.11111" stroke-miterlimit="10" stroke-linecap="round" stroke-linejoin="round"/>
<path d="M168.617 73.8748H180.969" stroke="black" stroke-width="6.11111" stroke-miterlimit="10" stroke-linecap="round" stroke-linejoin="round"/>
<path d="M37.4718 73.8748H127.574" stroke="black" stroke-width="6.11111" stroke-miterlimit="10" stroke-linecap="round" stroke-linejoin="round"/>
</svg>
