<svg width="192" height="192" viewBox="0 0 192 192" fill="none" xmlns="http://www.w3.org/2000/svg">
<path d="M117.822 162.555C117.822 175.778 138.729 181.333 138.729 181.333H54.4077C54.4077 181.333 75.3146 175.778 75.3146 162.555V149.399H117.391L117.822 162.555Z" fill="#D0CFCE"/>
<path d="M168.518 149.333H24.6195C17.1459 149.333 11.0872 143.275 11.0872 135.801V42.7547C11.0872 35.2811 17.1459 29.2224 24.6195 29.2224H168.518C175.991 29.2224 182.05 35.2811 182.05 42.7547V135.801C182.05 143.275 175.991 149.333 168.518 149.333Z" fill="#9B9B9A"/>
<path d="M180.125 124.59L11.2352 64.5349V39.3147C11.2352 34.3933 16.1072 30.9547 20.7443 32.6035L180.125 89.2776V124.59Z" fill="white"/>
<path d="M182.05 126.834C182.05 126.834 182.616 137.886 177.917 143.049C176.96 144.101 170.864 147.995 168.518 147.992L24.6195 149.325C17.1459 149.325 13.5155 144.386 13.5155 142.809L11.0872 126.834" fill="#D0CFCE"/>
<path d="M168.518 149.333H24.6195C17.1459 149.333 11.0872 143.275 11.0872 135.801V42.7547C11.0872 35.2811 17.1459 29.2224 24.6195 29.2224H168.518C175.991 29.2224 182.05 35.2811 182.05 42.7547V135.801C182.05 143.275 175.991 149.333 168.518 149.333Z" stroke="black" stroke-width="2" stroke-linecap="round" stroke-linejoin="round"/>
<path d="M168.518 147.325L24.6195 149.325C17.1459 149.325 13.5155 144.386 13.5155 142.809L11.0872 126.834" stroke="black" stroke-width="0.9187" stroke-linecap="round" stroke-linejoin="round"/>
<path d="M168.518 148L24.6195 149.333C17.1459 149.333 11.0872 143.275 11.0872 135.801V42.7547C11.0872 35.2811 17.1459 29.2224 24.6195 29.2224H168.518C175.991 29.2224 182.05 35.2811 182.05 42.7547L180.717 135.801C180.717 143.275 175.991 148 168.518 148Z" stroke="black" stroke-width="2" stroke-linecap="round" stroke-linejoin="round"/>
<path d="M19.2352 129.313H173.902" stroke="black" stroke-width="2" stroke-linecap="round" stroke-linejoin="round"/>
<path d="M115.155 162.555C115.155 175.778 138.729 181.333 138.729 181.333H54.4077C54.4077 181.333 77.9813 175.778 77.9813 162.555" stroke="black" stroke-width="2" stroke-linecap="round" stroke-linejoin="round"/>
</svg>
