<svg width="40" height="40" viewBox="0 0 40 40" fill="none" xmlns="http://www.w3.org/2000/svg">
<path d="M29.1667 35.9803H10.8333C10.5265 35.9803 10.2778 35.7316 10.2778 35.4247V4.31361C10.2778 4.00678 10.5265 3.75806 10.8333 3.75806H29.1667C29.4735 3.75806 29.7222 4.00678 29.7222 4.31361V35.4247C29.7222 35.7316 29.4735 35.9803 29.1667 35.9803Z" fill="#9B9B9A"/>
<path d="M26.6855 30.5555H13.3145C13.018 30.5555 12.7778 30.3152 12.7778 30.0188V7.75889C12.7778 7.46245 13.018 7.22217 13.3145 7.22217H26.6855C26.9819 7.22217 27.2222 7.46245 27.2222 7.75889V30.0188C27.2222 30.3152 26.9819 30.5555 26.6855 30.5555Z" fill="#D0CFCE"/>
<path d="M29.1667 35.9803H10.8333C10.5265 35.9803 10.2778 35.7316 10.2778 35.4247V4.31361C10.2778 4.00678 10.5265 3.75806 10.8333 3.75806H29.1667C29.4735 3.75806 29.7222 4.00678 29.7222 4.31361V35.4247C29.7222 35.7316 29.4735 35.9803 29.1667 35.9803Z" stroke="black" stroke-width="1.24444" stroke-miterlimit="10" stroke-linecap="round" stroke-linejoin="round"/>
<path d="M26.6855 30.5555H13.3145C13.018 30.5555 12.7778 30.3152 12.7778 30.0188V7.75889C12.7778 7.46245 13.018 7.22217 13.3145 7.22217H26.6855C26.9819 7.22217 27.2222 7.46245 27.2222 7.75889V30.0188C27.2222 30.3152 26.9819 30.5555 26.6855 30.5555Z" stroke="black" stroke-width="1.24444" stroke-miterlimit="10" stroke-linecap="round" stroke-linejoin="round"/>
<path d="M20 34.4444C20.6136 34.4444 21.1111 33.9469 21.1111 33.3333C21.1111 32.7196 20.6136 32.2222 20 32.2222C19.3863 32.2222 18.8889 32.7196 18.8889 33.3333C18.8889 33.9469 19.3863 34.4444 20 34.4444Z" fill="black" stroke="black" stroke-width="0.622222" stroke-miterlimit="10"/>
<path d="M17.2222 5.55566H22.7778H17.2222Z" stroke="black" stroke-width="1.24444" stroke-miterlimit="10" stroke-linecap="round" stroke-linejoin="round"/>
</svg>
